# xmcd
#
# Track frame offsets:
#	150
#	13869
#	28961
#	48258
#	62678
#	78644
#	91897
#	106166
#	125116
#	140671
#	156425
#	173596
#	190479
#	208496
#	223921
#	241403
#	255308
#	266880
#
# Disc length: 3759 seconds
#
# Revision: 1
# Processed by: cddbd v1.5.2PL0 Copyright (c) Steve Scherf et al.
# Submitted via: audiograbber 1.83.01
#
DISCID=150ead12
DTITLE=Dolly Parton - Ultimate - CD2
DYEAR=2003
DGENRE=Country
TTITLE0=9 to 5
TTITLE1=But You Know I Love You
TTITLE2=God Won't Get You
TTITLE3=Heartbreak Express
TTITLE4=Heartbreaker
TTITLE5=Here You Come Again
TTITLE6=I Really Got the Feeling
TTITLE7=Islands in the Stream
TTITLE8=Old Flames (Can't Hold a Candle to You)
TTITLE9=Rockin'  Years
TTITLE10=Save The Last Dance For Me
TTITLE11=Single Women
TTITLE12=Starting over Again
TTITLE13=Tennessee Homesick Blues
TTITLE14=To Know Him Is to Love Him
TTITLE15=Two Doors Down
TTITLE16=Why'd You Come in Here Lookin' Like That
TTITLE17=You're the Only One
EXTD=
EXTT0=
EXTT1=
EXTT2=
EXTT3=
EXTT4=
EXTT5=
EXTT6=
EXTT7=
EXTT8=
EXTT9=
EXTT10=
EXTT11=
EXTT12=
EXTT13=
EXTT14=
EXTT15=
EXTT16=
EXTT17=
PLAYORDER=
